# xmcd
#
# Track frame offsets: 
#        150
#        14197
#        28877
#        42520
#        56602
#        71627
#        85597
#        99950
#        113910
#        127192
#        139950
#        154762
#        169807
#        184460
#        198492
#        211400
#        226640
#        239112
#        251735
#        264992
#
# Disc length: 3717 seconds
#
# Revision: 4
# Processed by: cddbd v1.5.2PL0 Copyright (c) Steve Scherf et al.
# Submitted via: ExactAudioCopy v1.0b1
#
DISCID=2d0e8314
DTITLE=Blind Boy Fuller - East Coast Piedmont Style
DYEAR=1991
DGENRE=Blues
TTITLE0=Rag, Mama, Rag
TTITLE1=Baby You Gotta Change Your Mind
TTITLE2=My Brownskin Sugar Plum
TTITLE3=I'm A Rattlesnakin' Daddy
TTITLE4=I'm Climbin' On Top Of The Hill
TTITLE5=Baby, I Don't Have To Worry ('Cause That Stuff Is Here)
TTITLE6=Looking For My Woman
TTITLE7=Ain't It A Cryin' Shame?
TTITLE8=Walking My Troubles Away
TTITLE9=Sweet Honey Hole
TTITLE10=Somebody's Been Playing With That Thing
TTITLE11=Log Cabin Blues
TTITLE12=Keep Away From My Woman
TTITLE13=Cat Man Blues
TTITLE14=Untrue Blues
TTITLE15=Black And Tan
TTITLE16=Big Leg Woman Gets My Pay
TTITLE17=You've Got Something There
TTITLE18=I'm A Stranger Here
TTITLE19=Evil Hearted Woman
EXTD=
EXTT0=
EXTT1=
EXTT2=
EXTT3=
EXTT4=
EXTT5=
EXTT6=
EXTT7=
EXTT8=
EXTT9=
EXTT10=
EXTT11=
EXTT12=
EXTT13=
EXTT14=
EXTT15=
EXTT16=
EXTT17=
EXTT18=
EXTT19=
PLAYORDER=
